<?xml version="1.0" standalone="no"?>
<!DOCTYPE svg PUBLIC "-//W3C//DTD SVG 20010904//EN"
 "http://www.w3.org/TR/2001/REC-SVG-20010904/DTD/svg10.dtd">
<svg version="1.0" xmlns="http://www.w3.org/2000/svg"
 width="3840.000000pt" height="2160.000000pt" viewBox="0 0 3840.000000 2160.000000"
 preserveAspectRatio="xMidYMid meet">

<g transform="translate(0.000000,2160.000000) scale(0.100000,-0.100000)"
fill="#000000" stroke="none">
<path d="M7040 16612 c-270 -45 -496 -119 -740 -242 -327 -164 -580 -349 -871
-640 -203 -202 -404 -439 -575 -680 -104 -144 -133 -188 -213 -314 -67 -104
-112 -181 -236 -401 -36 -63 -155 -302 -155 -310 0 -4 46 53 102 126 322 424
606 723 895 942 34 26 69 54 77 63 9 8 16 12 16 7 0 -4 4 -3 8 3 13 20 194
135 282 179 83 41 253 112 288 120 9 2 60 13 112 25 108 25 202 34 345 34 101
0 239 -8 285 -18 14 -3 54 -10 90 -16 203 -35 480 -145 665 -264 488 -315 806
-812 1002 -1566 l9 -35 718 -3 718 -3 -7 73 c-3 40 -15 123 -26 183 -209 1175
-655 1962 -1369 2415 -196 124 -509 256 -698 295 -9 2 -64 13 -122 25 -154 33
-414 34 -600 2z"/>
<path d="M24745 13399 c-3 -3 -58 -10 -122 -14 -65 -4 -129 -12 -143 -18 -14
-5 -34 -11 -45 -12 -11 -1 -27 -4 -35 -7 -8 -4 -51 -12 -95 -18 -44 -6 -89
-17 -100 -24 -11 -7 -49 -19 -85 -26 -36 -7 -78 -21 -95 -30 -31 -19 -103 -41
-118 -37 -5 1 -13 -6 -18 -15 -6 -10 -14 -18 -19 -18 -5 0 -19 -4 -32 -9 -13
-5 -27 -9 -32 -9 -5 0 -12 -4 -15 -9 -7 -9 -34 -25 -96 -58 -22 -11 -59 -33
-82 -48 -24 -15 -47 -27 -53 -27 -5 0 -10 -5 -10 -10 0 -6 -8 -14 -17 -17 -10
-4 -44 -27 -76 -53 -32 -25 -66 -49 -76 -55 -9 -5 -34 -27 -54 -47 -21 -21
-41 -38 -45 -38 -10 0 -132 -123 -132 -134 0 -4 -18 -25 -41 -47 -22 -21 -38
-39 -35 -39 5 0 -96 -133 -138 -182 -8 -9 -13 -18 -11 -20 2 -2 -9 -21 -25
-43 -24 -33 -142 -263 -170 -330 -4 -11 -15 -36 -24 -57 -9 -20 -16 -42 -16
-50 0 -8 -4 -18 -9 -23 -4 -6 -16 -39 -25 -75 -9 -36 -21 -74 -26 -85 -4 -11
-16 -56 -25 -100 -9 -44 -21 -89 -26 -100 -8 -18 -22 -126 -36 -265 -3 -30
-10 -61 -16 -69 -18 -21 -16 -733 2 -754 7 -9 11 -33 10 -54 -2 -21 0 -43 3
-48 4 -6 12 -57 19 -115 7 -58 16 -107 19 -110 4 -3 10 -23 13 -45 11 -76 30
-155 39 -155 4 0 8 -8 8 -19 0 -22 26 -112 46 -158 8 -17 14 -38 14 -46 0 -8
6 -20 14 -27 8 -6 12 -18 9 -26 -3 -8 0 -14 6 -14 6 0 11 -7 11 -16 0 -15 60
-152 81 -184 5 -8 19 -34 30 -57 11 -24 24 -43 29 -43 6 0 10 -5 10 -11 0 -7
15 -32 33 -58 18 -25 36 -54 40 -63 3 -10 11 -18 17 -18 5 0 10 -6 10 -12 0
-7 36 -53 80 -103 44 -49 92 -107 108 -127 15 -21 32 -37 38 -38 6 0 17 -11
24 -25 7 -14 19 -25 25 -25 7 0 33 -22 59 -50 26 -27 49 -50 52 -50 3 0 24
-16 47 -35 22 -19 46 -35 53 -35 8 0 18 -9 24 -20 6 -11 16 -20 23 -20 7 0 30
-14 51 -30 22 -17 45 -30 51 -30 6 0 27 -12 46 -26 19 -14 50 -32 69 -41 19
-9 48 -25 63 -36 15 -10 44 -23 65 -29 20 -5 45 -17 56 -26 10 -10 21 -16 25
-15 11 4 98 -25 123 -40 12 -8 55 -20 93 -27 39 -7 73 -17 76 -22 4 -6 51 -17
105 -25 55 -8 106 -18 114 -21 8 -3 22 -7 30 -8 8 -1 36 -7 61 -13 26 -6 111
-14 190 -17 79 -4 149 -10 154 -14 24 -17 577 8 685 32 30 6 64 12 75 12 11 0
22 3 25 6 3 3 45 12 94 18 49 7 98 18 109 24 11 6 54 19 94 29 41 9 80 22 86
27 7 5 35 15 62 22 28 7 66 21 85 32 19 10 51 25 70 33 53 23 169 87 219 121
23 16 55 36 70 44 39 23 134 94 150 113 7 10 17 17 21 17 11 0 165 159 240
248 33 39 57 72 53 72 -4 0 3 7 15 16 12 8 22 21 22 28 0 7 14 30 30 51 17 21
30 44 30 51 0 8 5 14 10 14 6 0 10 4 10 10 0 5 14 32 30 58 17 27 30 55 30 63
0 8 9 25 20 39 11 14 20 31 20 38 0 8 6 28 14 45 38 88 44 105 51 136 4 18 15
52 25 75 10 22 21 67 25 99 4 31 11 60 16 63 5 3 7 10 3 15 -3 5 -1 15 4 22
11 14 32 159 32 224 0 23 3 43 8 43 4 0 7 27 7 60 l0 60 -757 0 -758 0 0 -34
c0 -18 -6 -52 -14 -74 -8 -22 -12 -43 -9 -46 4 -3 1 -16 -5 -29 -6 -12 -16
-46 -22 -76 -6 -30 -16 -61 -22 -69 -7 -7 -20 -37 -30 -65 -10 -28 -21 -53
-25 -56 -5 -3 -15 -19 -24 -34 -26 -47 -171 -189 -209 -205 -19 -8 -45 -23
-59 -33 -13 -10 -30 -19 -37 -19 -7 0 -23 -4 -36 -9 -13 -5 -26 -9 -30 -10 -5
-1 -27 -9 -50 -19 -36 -14 -76 -17 -258 -17 -186 0 -221 2 -260 18 -25 11 -46
19 -47 18 -2 0 -8 1 -15 4 -7 2 -31 9 -53 16 -22 6 -47 17 -55 24 -8 7 -32 20
-54 29 -43 18 -232 203 -256 251 -8 17 -19 33 -25 37 -5 4 -6 8 -2 8 5 0 -1
12 -12 26 -12 15 -21 33 -21 40 0 8 -12 38 -26 67 -15 28 -30 60 -35 69 -5 10
-6 24 -3 33 3 8 2 15 -3 15 -5 0 -15 30 -22 68 -8 37 -17 72 -22 78 -5 6 -7
20 -4 32 2 12 0 22 -4 22 -4 0 -13 75 -20 168 -7 92 -15 174 -19 182 -8 22
-11 273 -2 285 4 6 13 84 20 175 7 91 15 170 18 175 4 6 7 21 7 35 0 14 3 30
7 35 3 6 11 37 18 70 7 33 17 66 22 73 6 6 7 12 2 12 -4 0 -3 5 4 12 7 7 12
20 12 31 0 17 35 101 65 157 8 14 26 48 41 75 28 52 196 225 218 225 7 0 27
11 46 25 19 14 39 25 46 25 7 0 25 5 41 12 15 6 30 12 33 13 3 1 19 7 35 14
17 7 60 15 98 18 37 3 67 9 67 13 0 11 248 2 349 -12 54 -8 96 -19 99 -26 2
-7 8 -10 12 -7 5 3 17 1 27 -4 10 -5 38 -17 63 -27 25 -10 47 -21 50 -25 3 -3
19 -13 36 -22 51 -26 178 -169 199 -223 10 -27 24 -53 30 -59 7 -5 18 -32 25
-60 7 -27 18 -63 25 -80 7 -16 16 -57 20 -90 3 -33 8 -75 11 -92 l5 -33 766 0
766 0 -6 111 c-4 61 -11 117 -16 123 -5 6 -17 63 -25 125 -9 63 -21 120 -26
126 -5 7 -7 15 -3 18 3 4 2 7 -4 7 -5 0 -16 32 -23 71 -7 40 -20 86 -30 103
-10 17 -21 46 -25 65 -4 19 -19 55 -33 80 -14 25 -28 53 -32 61 -4 8 -15 31
-25 50 -45 86 -68 127 -89 155 -12 17 -25 38 -29 48 -3 9 -11 17 -17 17 -5 0
-10 5 -10 11 0 22 -266 319 -286 319 -3 0 -29 20 -57 44 -29 24 -66 52 -83 62
-17 11 -58 37 -90 60 -54 37 -93 58 -103 54 -2 -1 -7 2 -10 7 -8 12 -128 73
-143 73 -6 0 -19 6 -27 14 -9 7 -43 21 -76 31 -33 9 -63 21 -66 26 -3 5 -41
17 -85 26 -43 9 -86 22 -94 28 -8 7 -53 18 -100 25 -47 6 -92 14 -100 18 -8 3
-24 6 -35 7 -11 0 -25 4 -32 8 -14 9 -180 27 -250 27 -29 0 -53 4 -53 8 0 10
-579 11 -585 1z"/>
<path d="M34649 13399 c-8 -4 -71 -12 -141 -17 -70 -6 -133 -14 -140 -18 -7
-5 -22 -9 -33 -9 -11 -1 -27 -4 -35 -8 -8 -3 -49 -11 -90 -17 -41 -7 -84 -18
-95 -25 -12 -7 -48 -18 -80 -25 -33 -6 -69 -17 -80 -24 -11 -7 -42 -19 -70
-26 -27 -8 -78 -29 -112 -47 -35 -18 -63 -30 -63 -27 0 3 -12 -4 -26 -15 -15
-12 -31 -21 -36 -21 -5 0 -34 -16 -64 -35 -30 -19 -58 -35 -63 -35 -4 0 -28
-16 -52 -35 -24 -19 -49 -35 -55 -35 -7 0 -14 -6 -17 -14 -3 -8 -22 -22 -42
-32 -47 -22 -294 -260 -388 -374 -66 -80 -83 -104 -127 -179 -8 -14 -21 -30
-27 -34 -7 -4 -13 -13 -13 -20 0 -7 -16 -36 -35 -64 -19 -29 -35 -58 -35 -65
0 -7 -11 -30 -25 -50 -14 -20 -25 -42 -25 -48 0 -7 -6 -24 -14 -38 -15 -29
-50 -104 -51 -112 -6 -30 -32 -100 -43 -117 -8 -13 -11 -23 -7 -23 4 0 3 -6
-3 -12 -5 -7 -13 -33 -17 -58 -4 -25 -12 -54 -18 -65 -6 -11 -12 -27 -12 -35
0 -8 -3 -19 -7 -25 -3 -5 -11 -53 -18 -105 -6 -52 -14 -102 -17 -110 -4 -8 -5
-19 -4 -24 1 -4 -3 -13 -8 -20 -40 -48 -39 -1072 1 -1097 6 -4 7 -12 3 -18 -4
-7 -2 -17 3 -24 5 -7 15 -58 22 -115 7 -56 16 -105 21 -107 4 -3 6 -14 4 -25
-2 -11 0 -20 5 -20 5 0 14 -26 20 -57 7 -32 16 -63 21 -69 5 -6 7 -18 4 -26
-3 -8 1 -20 9 -27 8 -7 18 -33 22 -57 3 -24 10 -44 14 -44 5 0 16 -25 25 -55
10 -30 22 -55 27 -55 5 0 8 -6 7 -12 -3 -19 30 -88 42 -88 5 0 9 -6 8 -12 -3
-17 29 -88 39 -88 4 0 16 -20 27 -45 10 -24 25 -47 32 -49 7 -3 13 -12 13 -19
0 -8 16 -34 35 -58 19 -24 35 -47 35 -51 0 -4 10 -18 23 -31 12 -14 38 -46 57
-72 43 -57 317 -325 332 -325 6 0 18 -7 27 -16 22 -21 148 -114 155 -114 4 0
24 -11 46 -25 22 -14 71 -42 108 -62 37 -20 69 -39 72 -42 3 -3 10 -7 15 -8
30 -7 85 -31 100 -43 10 -8 20 -14 21 -13 2 1 9 1 16 -2 7 -2 31 -9 53 -15 22
-7 58 -20 80 -30 22 -10 60 -21 85 -25 24 -4 54 -13 65 -21 11 -7 64 -18 118
-25 53 -7 97 -16 97 -20 0 -3 10 -5 23 -5 12 1 27 -1 32 -5 13 -9 219 -29 302
-29 34 0 64 -4 67 -8 12 -19 593 6 706 30 30 6 60 12 65 13 6 1 17 4 25 7 8 4
53 12 100 18 47 6 94 17 105 24 11 7 49 18 85 25 36 7 74 18 85 25 18 12 120
45 138 45 4 0 19 9 34 21 14 11 31 20 37 20 15 0 160 75 211 109 22 15 47 31
56 36 47 28 96 64 108 79 7 9 19 16 26 16 7 0 21 11 31 25 10 14 23 25 29 25
13 0 215 202 215 214 0 6 12 22 26 36 41 40 124 151 124 166 0 7 8 17 18 23 9
5 15 11 13 13 -2 2 6 19 17 38 12 19 22 40 22 45 1 6 8 14 16 18 8 4 14 13 14
19 0 6 14 40 30 75 17 34 30 68 30 73 0 6 5 10 10 10 6 0 10 6 9 13 -2 12 1
22 29 87 8 19 16 40 18 45 1 6 10 36 19 69 8 32 19 64 23 70 4 6 7 20 7 31 0
11 3 25 7 30 3 6 9 39 13 75 4 36 13 79 20 95 7 17 12 44 11 60 -1 17 1 37 5
45 3 8 9 54 13 103 l7 87 -763 -2 -763 -3 1 -27 c1 -16 -3 -28 -7 -28 -5 0 -9
-14 -9 -32 0 -50 -21 -162 -34 -178 -7 -8 -18 -37 -25 -65 -6 -27 -16 -51 -22
-53 -5 -2 -9 -9 -9 -15 0 -37 -158 -237 -187 -237 -7 0 -18 -9 -25 -20 -7 -11
-18 -20 -24 -20 -6 0 -23 -9 -36 -20 -14 -10 -28 -16 -32 -13 -3 3 -6 2 -6 -4
0 -5 -19 -15 -42 -22 -24 -7 -58 -19 -77 -28 -18 -8 -65 -19 -105 -25 -94 -13
-402 -5 -441 12 -16 7 -38 12 -47 11 -10 -1 -18 2 -18 6 0 5 -22 15 -50 22
-27 7 -52 17 -55 21 -3 5 -26 18 -53 31 -26 12 -54 31 -63 41 -9 10 -20 18
-26 18 -12 0 -103 93 -103 106 0 6 -11 20 -25 30 -14 10 -25 22 -25 26 0 5
-13 27 -30 50 -16 22 -30 47 -30 55 0 7 -4 13 -9 13 -5 0 -12 13 -16 29 -3 16
-13 35 -21 41 -7 7 -11 16 -8 22 3 5 1 15 -5 22 -6 7 -17 40 -25 75 -8 34 -20
69 -26 76 -7 8 -10 22 -6 30 3 8 2 15 -2 15 -5 0 -14 48 -21 108 -7 59 -18
113 -25 121 -17 22 -16 702 2 724 8 9 13 26 11 39 -1 13 0 30 3 38 7 17 28
156 29 184 0 10 6 28 13 40 8 11 17 39 21 61 13 73 98 247 154 313 20 24 41
51 46 60 18 31 49 62 61 62 6 0 17 7 25 16 20 25 110 80 154 95 22 8 42 16 45
19 12 12 79 30 135 36 33 3 67 8 75 12 22 8 253 10 265 2 6 -4 40 -10 76 -13
68 -6 149 -27 149 -38 0 -4 17 -10 38 -14 38 -7 112 -49 147 -85 12 -11 26
-20 32 -20 6 0 22 -14 35 -31 13 -17 32 -41 43 -53 37 -43 116 -191 107 -201
-4 -3 -1 -9 6 -14 6 -4 17 -43 23 -86 6 -44 14 -87 17 -95 3 -8 6 -18 6 -22 1
-3 4 -10 9 -14 4 -4 7 -22 7 -41 l0 -33 765 0 c421 0 766 3 766 8 7 45 7 68
-1 78 -6 6 -15 60 -21 120 -6 60 -14 114 -18 119 -4 6 -6 21 -5 35 1 14 -2 30
-6 35 -4 6 -13 40 -21 78 -7 37 -16 67 -20 67 -4 0 -6 11 -3 25 2 14 0 25 -6
25 -5 0 -10 11 -10 24 0 14 -4 28 -10 31 -5 3 -10 17 -10 31 0 13 -5 24 -11
24 -5 0 -8 4 -4 9 3 5 1 12 -5 16 -5 3 -10 15 -10 27 0 11 -9 32 -19 46 -10
15 -19 30 -20 35 0 4 -9 28 -20 52 -11 25 -20 48 -20 52 1 3 -3 9 -8 12 -4 3
-16 22 -26 41 -38 74 -107 180 -131 199 -9 7 -16 19 -16 26 0 7 -11 21 -25 31
-14 10 -25 24 -25 29 0 11 -208 216 -251 247 -13 10 -57 43 -96 73 -40 30 -76
55 -79 55 -4 0 -34 17 -68 38 -34 20 -79 46 -101 57 -22 11 -42 22 -45 25 -3
3 -24 12 -47 20 -24 7 -43 17 -43 22 0 5 -4 6 -10 3 -5 -3 -10 -2 -10 3 0 6
-16 13 -36 17 -20 3 -48 11 -63 17 -14 6 -29 11 -33 10 -5 -1 -8 2 -8 7 0 5
-31 15 -70 22 -38 7 -70 16 -70 21 0 5 -4 6 -10 3 -5 -3 -10 -2 -10 3 0 6 -39
15 -87 22 -49 7 -95 15 -103 18 -8 3 -22 6 -30 8 -8 1 -33 6 -55 12 -22 6 -92
14 -155 18 -63 3 -119 9 -125 13 -14 9 -578 9 -596 0z"/>
<path d="M14930 10805 l0 -2475 810 0 810 0 0 2475 0 2475 -810 0 -810 0 0
-2475z"/>
<path d="M17500 10805 l0 -2475 792 2 793 3 0 850 0 850 360 3 c198 1 367 -1
375 -5 8 -4 42 -8 75 -9 63 -2 158 -24 212 -49 17 -8 38 -15 47 -15 9 0 52
-36 95 -79 65 -65 80 -86 86 -120 4 -23 11 -41 16 -41 6 0 9 -6 8 -12 -1 -7 0
-20 3 -28 17 -46 28 -103 28 -143 0 -25 4 -48 8 -51 5 -3 8 -172 8 -376 -1
-205 2 -374 7 -377 4 -2 7 -20 7 -38 0 -32 15 -110 28 -145 3 -8 7 -26 7 -40
1 -14 5 -32 8 -40 3 -8 10 -42 14 -75 l8 -60 813 -3 812 -2 0 105 c0 103 0
105 -23 105 -26 0 -77 48 -77 72 0 9 -4 18 -10 20 -5 2 -15 49 -22 106 -6 56
-14 102 -17 102 -3 0 -5 68 -5 150 1 83 -3 153 -7 156 -5 3 -9 83 -9 177 -1
200 -16 482 -27 500 -4 6 -6 20 -5 30 2 9 -2 17 -7 17 -6 0 -11 13 -11 28 0
46 -23 146 -35 157 -7 6 -18 31 -25 58 -7 26 -17 47 -21 47 -5 0 -8 3 -7 8 3
12 -35 82 -44 82 -5 0 -6 4 -3 10 3 5 -40 56 -97 113 -72 71 -121 111 -163
132 -33 17 -61 33 -63 38 -2 4 -11 7 -20 7 -9 0 -30 9 -46 19 -17 11 -33 18
-38 15 -4 -3 -8 0 -8 5 0 6 -8 11 -17 11 -28 0 -133 32 -133 41 0 4 14 10 30
14 17 4 30 10 30 13 0 4 10 12 23 18 69 33 146 80 202 123 65 50 215 194 215
207 0 3 12 21 28 40 54 66 69 90 81 126 7 20 18 41 26 48 7 6 19 33 25 60 7
28 16 50 20 50 9 0 40 131 40 171 0 16 5 29 11 29 5 0 9 8 7 18 -1 9 1 23 6
30 14 22 19 388 7 477 -6 44 -11 90 -11 103 0 12 -4 22 -8 22 -4 0 -13 42 -20
93 -7 50 -18 97 -26 102 -7 6 -16 25 -19 44 -4 19 -26 72 -50 119 -59 119 -67
132 -78 132 -6 0 -8 4 -5 9 8 12 -193 222 -230 241 -16 8 -33 20 -37 27 -4 7
-27 22 -50 33 -23 11 -53 27 -67 35 -23 14 -140 67 -185 85 -11 4 -40 14 -65
21 -25 7 -49 15 -55 18 -5 3 -17 6 -25 6 -8 0 -20 4 -27 8 -6 4 -33 10 -60 13
-26 4 -57 12 -68 18 -11 5 -27 11 -35 11 -8 0 -19 3 -25 6 -5 4 -72 12 -147
19 -76 7 -138 16 -138 20 0 3 -15 7 -32 8 -18 1 -91 6 -163 11 -71 5 -730 10
-1462 10 l-1333 1 0 -2475z m2485 1253 c11 -2 31 -7 45 -10 14 -4 64 -12 113
-18 48 -7 91 -18 95 -24 4 -7 22 -18 39 -25 37 -15 113 -93 113 -116 0 -8 5
-15 10 -15 6 0 10 -6 9 -12 -1 -7 0 -20 4 -28 22 -58 27 -96 27 -195 0 -99 -5
-136 -27 -195 -4 -8 -7 -19 -7 -25 -5 -44 -111 -155 -147 -155 -11 0 -19 -5
-19 -10 0 -6 -6 -10 -12 -9 -7 1 -20 0 -28 -3 -21 -8 -89 -26 -125 -33 -16 -4
-61 -8 -100 -9 -38 -2 -77 -6 -85 -10 -8 -3 -193 -5 -410 -4 l-395 3 -1 445
c0 245 2 449 4 453 4 8 862 4 897 -5z"/>
<path d="M27700 12625 l0 -655 710 0 710 0 0 -1820 0 -1820 800 0 800 0 0
1820 0 1820 695 0 695 0 0 655 0 655 -2205 0 -2205 0 0 -655z"/>
<path d="M5267 11563 c-3 -531 -3 -2752 1 -3080 l3 -241 1283 0 c706 0 1299 3
1317 7 l32 6 -89 90 c-50 50 -200 196 -334 326 -668 642 -780 752 -845 824
-38 43 -83 92 -98 108 -67 72 -78 148 -31 199 27 28 76 60 99 64 28 5 305 102
411 144 314 125 541 275 634 421 64 98 100 253 100 423 0 170 -27 288 -97 431
-118 236 -385 477 -721 647 l-114 58 -774 0 -774 0 -3 -427z"/>
<path d="M7555 11981 c-2 -4 48 -45 111 -91 260 -190 427 -420 506 -697 19
-68 22 -108 25 -313 4 -224 3 -239 -21 -332 -48 -188 -134 -336 -281 -483
-190 -190 -410 -314 -727 -411 -32 -10 -58 -20 -58 -24 0 -3 308 -316 683
-695 l684 -690 279 0 279 0 1 1873 2 1873 -739 -2 c-407 0 -741 -4 -744 -8z"/>
<path d="M2610 10738 c-469 -365 -823 -728 -1076 -1103 -485 -720 -612 -1533
-347 -2225 261 -678 833 -1167 1703 -1457 296 -98 747 -193 1040 -218 30 -3
64 -7 75 -9 115 -22 648 -37 980 -26 l90 2 -105 18 c-119 20 -164 28 -200 35
-14 3 -38 7 -55 10 -440 75 -833 186 -1110 313 -120 55 -326 168 -337 186 -5
6 -8 7 -8 1 0 -6 -3 -6 -8 0 -4 6 -45 40 -92 76 -73 57 -122 104 -267 256 -12
13 -19 23 -15 23 4 0 2 4 -4 8 -14 10 -95 126 -130 187 -15 28 -33 53 -39 57
-5 4 -6 8 -1 8 5 0 4 6 -2 13 -17 20 -82 174 -108 257 -27 84 -70 267 -80 335
-29 216 -25 520 10 680 77 354 239 667 524 1010 141 168 282 314 326 337 22
11 43 22 45 24 1 1 -25 56 -59 121 -102 193 -622 1137 -634 1150 -9 10 -35 -6
-116 -69z"/>
<path d="M11819 10648 c5 -13 26 -63 46 -113 231 -561 322 -826 374 -1095 6
-30 14 -66 16 -80 52 -253 57 -650 10 -845 -72 -300 -227 -569 -479 -834 -302
-315 -728 -544 -1076 -576 -142 -14 -675 -7 -845 11 -64 6 -70 8 -152 25 -29
5 -56 11 -60 11 -5 0 -46 11 -93 24 -47 13 -92 24 -100 24 -10 0 -42 -49 -85
-127 -38 -71 -124 -227 -190 -348 -137 -248 -167 -302 -252 -465 -178 -338
-173 -328 -155 -333 9 -3 89 -30 177 -60 949 -324 1733 -376 2394 -157 830
275 1373 901 1505 1735 10 63 15 185 15 402 1 286 -1 325 -24 475 -93 603
-317 1187 -713 1853 -73 123 -312 495 -318 495 -2 0 0 -10 5 -22z"/>
</g>
</svg>
